<svg width="32" height="32" viewBox="0 0 32 32" fill="none" xmlns="http://www.w3.org/2000/svg">
<path d="M20.2334 11.1001C20.8779 11.7445 21.3503 12.4778 21.6508 13.3001C21.9512 14.1223 22.0566 14.9667 21.9668 15.8334C21.9668 16.1667 21.8446 16.4503 21.6001 16.6841C21.3557 16.9178 21.0668 17.0343 20.7334 17.0334C20.4001 17.0325 20.1166 16.9161 19.8828 16.6841C19.649 16.4521 19.5326 16.1685 19.5334 15.8334C19.6446 15.2556 19.6112 14.7001 19.4334 14.1667C19.2557 13.6334 18.9779 13.1778 18.6001 12.8001C18.2223 12.4223 17.7668 12.1334 17.2334 11.9334C16.7001 11.7334 16.1334 11.6889 15.5334 11.8001C15.2001 11.8001 14.9166 11.6778 14.6828 11.4334C14.449 11.1889 14.3326 10.9001 14.3334 10.5667C14.3343 10.2334 14.4512 9.95028 14.6841 9.71739C14.917 9.4845 15.2001 9.36761 15.5334 9.36672C16.3779 9.27783 17.2112 9.38361 18.0334 9.68405C18.8557 9.9845 19.589 10.4565 20.2334 11.1001ZM16.0001 8.00005C15.5779 8.00005 15.1668 8.0165 14.7668 8.04939C14.3668 8.08228 13.9668 8.14361 13.5668 8.23339C13.189 8.30005 12.8499 8.2445 12.5494 8.06672C12.249 7.88894 12.0437 7.62228 11.9334 7.26672C11.8232 6.91116 11.8623 6.56672 12.0508 6.23339C12.2392 5.90005 12.5112 5.70005 12.8668 5.63339C13.3779 5.52228 13.8948 5.4445 14.4174 5.40005C14.9401 5.35561 15.4677 5.33339 16.0001 5.33339C19.0446 5.33339 21.8281 6.13339 24.3508 7.73339C26.8734 9.33339 28.801 11.4889 30.1334 14.2001C30.2223 14.3778 30.289 14.5614 30.3334 14.7507C30.3779 14.9401 30.4001 15.1343 30.4001 15.3334C30.4001 15.5325 30.3832 15.7272 30.3494 15.9174C30.3157 16.1076 30.2548 16.2907 30.1668 16.4667C29.7668 17.3556 29.2726 18.1889 28.6841 18.9667C28.0957 19.7445 27.4454 20.4556 26.7334 21.1001C26.4668 21.3445 26.1557 21.4445 25.8001 21.4001C25.4446 21.3556 25.1557 21.1778 24.9334 20.8667C24.7112 20.5556 24.617 20.2165 24.6508 19.8494C24.6846 19.4823 24.8343 19.1769 25.1001 18.9334C25.6334 18.4223 26.1223 17.8667 26.5668 17.2667C27.0112 16.6667 27.4001 16.0223 27.7334 15.3334C26.6223 13.0889 25.0166 11.3058 22.9161 9.98405C20.8157 8.66228 18.5103 8.00094 16.0001 8.00005ZM16.0001 25.3334C13.0223 25.3334 10.3001 24.5281 7.83344 22.9174C5.36677 21.3067 3.42233 19.1898 2.00011 16.5667C1.889 16.3889 1.80588 16.1947 1.75077 15.9841C1.69566 15.7734 1.66766 15.5565 1.66677 15.3334C1.66588 15.1103 1.68811 14.8992 1.73344 14.7001C1.77877 14.5009 1.85655 14.3009 1.96677 14.1001C2.41122 13.2112 2.92811 12.3614 3.51744 11.5507C4.10677 10.7401 4.77877 10.0009 5.53344 9.33339L2.76677 6.53339C2.52233 6.26672 2.40588 5.95028 2.41744 5.58405C2.429 5.21783 2.55655 4.91205 2.80011 4.66672C3.04366 4.42139 3.35477 4.29916 3.73344 4.30005C4.11211 4.30094 4.42322 4.42316 4.66677 4.66672L27.3334 27.3334C27.5779 27.5778 27.7059 27.8836 27.7174 28.2507C27.729 28.6178 27.601 28.9343 27.3334 29.2001C27.089 29.4445 26.7779 29.5667 26.4001 29.5667C26.0223 29.5667 25.7112 29.4445 25.4668 29.2001L20.8001 24.6001C20.0223 24.8445 19.2334 25.0281 18.4334 25.1507C17.6334 25.2734 16.8223 25.3343 16.0001 25.3334ZM7.40011 11.2001C6.75566 11.7778 6.16677 12.4112 5.63344 13.1001C5.10011 13.7889 4.64455 14.5334 4.26677 15.3334C5.37788 17.5778 6.98366 19.3614 9.08411 20.6841C11.1846 22.0067 13.4899 22.6676 16.0001 22.6667C16.4446 22.6667 16.8779 22.6392 17.3001 22.5841C17.7223 22.5289 18.1557 22.4676 18.6001 22.4001L17.4001 21.1334C17.1557 21.2001 16.9223 21.2503 16.7001 21.2841C16.4779 21.3178 16.2446 21.3343 16.0001 21.3334C14.3334 21.3334 12.9166 20.7503 11.7494 19.5841C10.5823 18.4178 9.99922 17.0009 10.0001 15.3334C10.0001 15.0889 10.017 14.8556 10.0508 14.6334C10.0846 14.4112 10.1343 14.1778 10.2001 13.9334L7.40011 11.2001Z" fill="#939393"/>
</svg>
