<svg width="40" height="40" viewBox="0 0 40 40" fill="none" xmlns="http://www.w3.org/2000/svg">
<circle cx="20" cy="20" r="20" fill="#005CA1"/>
<path d="M15.4984 9.2876H24.4984C27.927 9.2876 30.7127 12.0733 30.7127 15.5019V24.5019C30.7127 26.15 30.058 27.7306 28.8926 28.896C27.7272 30.0614 26.1466 30.7162 24.4984 30.7162H15.4984C12.0699 30.7162 9.28415 27.9305 9.28415 24.5019V15.5019C9.28415 13.8538 9.93887 12.2731 11.1043 11.1077C12.2697 9.94232 13.8503 9.2876 15.4984 9.2876ZM15.2841 11.4305C14.2612 11.4305 13.2801 11.8368 12.5567 12.5602C11.8334 13.2835 11.427 14.2646 11.427 15.2876V24.7162C11.427 26.8483 13.152 28.5733 15.2841 28.5733H24.7127C25.7357 28.5733 26.7168 28.1669 27.4401 27.4436C28.1635 26.7202 28.5699 25.7391 28.5699 24.7162V15.2876C28.5699 13.1555 26.8449 11.4305 24.7127 11.4305H15.2841ZM25.6234 13.0376C25.9786 13.0376 26.3193 13.1787 26.5705 13.4299C26.8216 13.681 26.9627 14.0217 26.9627 14.3769C26.9627 14.7321 26.8216 15.0727 26.5705 15.3239C26.3193 15.5751 25.9786 15.7162 25.6234 15.7162C25.2682 15.7162 24.9276 15.5751 24.6764 15.3239C24.4252 15.0727 24.2841 14.7321 24.2841 14.3769C24.2841 14.0217 24.4252 13.681 24.6764 13.4299C24.9276 13.1787 25.2682 13.0376 25.6234 13.0376ZM19.9984 14.6447C21.4192 14.6447 22.7818 15.2092 23.7865 16.2138C24.7912 17.2185 25.3556 18.5811 25.3556 20.0019C25.3556 21.4227 24.7912 22.7853 23.7865 23.79C22.7818 24.7946 21.4192 25.359 19.9984 25.359C18.5776 25.359 17.215 24.7946 16.2104 23.79C15.2057 22.7853 14.6413 21.4227 14.6413 20.0019C14.6413 18.5811 15.2057 17.2185 16.2104 16.2138C17.215 15.2092 18.5776 14.6447 19.9984 14.6447ZM19.9984 16.7876C19.146 16.7876 18.3284 17.1262 17.7256 17.729C17.1228 18.3318 16.7841 19.1494 16.7841 20.0019C16.7841 20.8544 17.1228 21.6719 17.7256 22.2747C18.3284 22.8775 19.146 23.2162 19.9984 23.2162C20.8509 23.2162 21.6685 22.8775 22.2713 22.2747C22.8741 21.6719 23.2127 20.8544 23.2127 20.0019C23.2127 19.1494 22.8741 18.3318 22.2713 17.729C21.6685 17.1262 20.8509 16.7876 19.9984 16.7876Z" fill="white"/>
</svg>
